HIERARCHY
ROOT joint_Root
{
	OFFSET 0.0 0.0 0.0
	CHANNELS 6 Xposition Yposition Zposition Zrotation Xrotation Yrotation 
	JOINT Hips
	{
		OFFSET 4.5925 91.4895 -427.239
		CHANNELS 6 Xposition Yposition Zposition Zrotation Xrotation Yrotation 
		JOINT Spine
		{
			OFFSET 15.7357 0.0 0.0
			CHANNELS 6 Xposition Yposition Zposition Zrotation Xrotation Yrotation 
			JOINT Chest
			{
				OFFSET 8.98455 -0.406207 0.0
				CHANNELS 6 Xposition Yposition Zposition Zrotation Xrotation Yrotation 
				JOINT Neck
				{
					OFFSET 16.3773 0.0 0.0
					CHANNELS 6 Xposition Yposition Zposition Zrotation Xrotation Yrotation 
					JOINT Head
					{
						OFFSET 6.45672 0.0 0.0
						CHANNELS 6 Xposition Yposition Zposition Zrotation Xrotation Yrotation 
						End Site
						{
							OFFSET 0.0 0.0 0.0
						}
					}
				}
				JOINT Shoulder_L
				{
					OFFSET 12.9942 -0.242716 4.98039
					CHANNELS 6 Xposition Yposition Zposition Zrotation Xrotation Yrotation 
					JOINT UpperArm_L
					{
						OFFSET 5.34809 0.0 0.0
						CHANNELS 6 Xposition Yposition Zposition Zrotation Xrotation Yrotation 
						JOINT LowerArm_L
						{
							OFFSET 24.3286 1.87007e-05 0.0
							CHANNELS 6 Xposition Yposition Zposition Zrotation Xrotation Yrotation 
							JOINT Hand_L
							{
								OFFSET 22.2916 0.0 0.0
								CHANNELS 6 Xposition Yposition Zposition Zrotation Xrotation Yrotation 
								End Site
								{
									OFFSET 0.0 0.0 0.0
								}
							}
						}
					}
				}
				JOINT Shoulder_R
				{
					OFFSET 12.9945 -0.242716 -4.98039
					CHANNELS 6 Xposition Yposition Zposition Zrotation Xrotation Yrotation 
					JOINT UpperArm_R
					{
						OFFSET -5.34813 0.0 0.0
						CHANNELS 6 Xposition Yposition Zposition Zrotation Xrotation Yrotation 
						JOINT LowerArm_R
						{
							OFFSET -24.3289 0.000322201 0.0
							CHANNELS 6 Xposition Yposition Zposition Zrotation Xrotation Yrotation 
							JOINT Hand_R
							{
								OFFSET -22.2915 -0.000108084 0.0
								CHANNELS 6 Xposition Yposition Zposition Zrotation Xrotation Yrotation 
								End Site
								{
									OFFSET 0.0 0.0 0.0
								}
							}
						}
					}
				}
			}
		}
		JOINT UpperLeg_L
		{
			OFFSET -2.19248 -6.46944 0.0
			CHANNELS 6 Xposition Yposition Zposition Zrotation Xrotation Yrotation 
			JOINT LowerLeg_L
			{
				OFFSET 39.0811 0.0 -1.23785e-05
				CHANNELS 6 Xposition Yposition Zposition Zrotation Xrotation Yrotation 
				JOINT Foot_L
				{
					OFFSET 40.9854 0.0 -1.26872e-05
					CHANNELS 6 Xposition Yposition Zposition Zrotation Xrotation Yrotation 
					JOINT Toes_L
					{
						OFFSET 11.7543 0.0 0.0
						CHANNELS 6 Xposition Yposition Zposition Zrotation Xrotation Yrotation 
						End Site
						{
							OFFSET 0.0 0.0 0.0
						}
					}
				}
			}
		}
		JOINT UpperLeg_R
		{
			OFFSET -2.19251 6.46944 0.0
			CHANNELS 6 Xposition Yposition Zposition Zrotation Xrotation Yrotation 
			JOINT LowerLeg_R
			{
				OFFSET -39.0811 -0.00228153 -0.0401928
				CHANNELS 6 Xposition Yposition Zposition Zrotation Xrotation Yrotation 
				JOINT Foot_R
				{
					OFFSET -40.9854 0.0 0.0
					CHANNELS 6 Xposition Yposition Zposition Zrotation Xrotation Yrotation 
					JOINT Toes_R
					{
						OFFSET -11.7543 0.0 0.0
						CHANNELS 6 Xposition Yposition Zposition Zrotation Xrotation Yrotation 
						End Site
						{
							OFFSET 0.0 0.0 0.0
						}
					}
				}
			}
		}
	}
}
MOTION
Frames:	4
Frame Time:	0.0333333
0.000000 0.000000 0.000000 0.000000 0.000000 -0.000000 -1.072750 91.261500 -2.199810 91.233500 -5.839390 5.391390 15.735700 0.000005 -0.000001 96.805100 84.395700 -91.386700 8.984550 -0.406207 -0.000000 3.334410 1.118050 10.792600 16.377300 -0.000001 -0.000001 6.774260 -1.892720 -4.907110 6.456720 -0.000001 -0.000000 2.677480 -4.825570 5.925640 12.994200 -0.242716 4.980390 -83.991700 -10.779300 -60.631500 5.348090 -0.000007 -0.000001 -71.811200 -68.210800 -116.577000 24.328600 0.000019 0.000005 -4.404760 -4.708190 -43.185600 22.291600 -0.000001 0.000005 26.519200 5.155540 3.811380 12.994500 -0.242716 -4.980390 87.647600 8.305720 -74.125400 -5.348130 -0.000001 -0.000004 -55.078900 1.095400 2.514260 -24.328900 0.000322 -0.000009 -6.507380 -16.834000 -21.495000 -22.291500 -0.000108 -0.000004 21.620000 5.486520 -5.998340 -2.192480 -6.469440 -0.000000 -175.152000 -20.185900 -3.141830 39.081100 -0.000007 -0.000012 -0.114817 0.223259 27.215900 40.985400 -0.000006 -0.000013 0.505657 11.522900 -67.944300 11.754300 -0.000000 0.000003 -0.000070 -0.000759 -16.606900 -2.192510 6.469440 -0.000001 174.872000 17.299000 174.911000 -39.081100 -0.002282 -0.040193 -0.196433 0.353434 29.472300 -40.985400 0.000008 0.000006 3.198060 13.174300 -69.320500 -11.754300 -0.000006 -0.000006 -0.000029 -0.000350 -16.587600
0.000000 0.000000 0.000000 0.000000 0.000000 -0.000000 -1.318160 91.239300 -2.105200 91.613800 -6.014260 5.321730 15.735700 0.000005 -0.000001 95.162200 84.451300 -89.580400 8.984550 -0.406207 -0.000000 3.273200 0.779624 11.129400 16.377300 -0.000001 -0.000001 6.892890 -2.460750 -3.853780 6.456720 -0.000001 -0.000000 2.549270 -4.451440 5.461150 12.994200 -0.242716 4.980390 -85.001600 -9.441790 -61.936400 5.348090 -0.000007 -0.000001 -40.206400 -69.878900 -78.316200 24.328600 0.000019 0.000005 -4.354000 -5.693160 -37.504100 22.291600 -0.000001 0.000005 22.729500 5.108700 4.925000 12.994500 -0.242716 -4.980390 87.476600 8.574250 -73.532700 -5.348130 -0.000001 -0.000004 -55.010200 1.303910 1.446190 -24.328900 0.000322 -0.000009 -6.151410 -15.828500 -21.557400 -22.291500 -0.000108 -0.000004 20.713200 5.478320 -5.684290 -2.192480 -6.469440 -0.000000 -175.223000 -21.024400 -2.968950 39.081100 -0.000007 -0.000012 -0.103677 0.203743 26.970000 40.985400 -0.000006 -0.000013 0.458513 12.219800 -67.857500 11.754300 -0.000000 0.000003 -0.000064 -0.000702 -16.604700 -2.192510 6.469440 -0.000001 174.725000 16.885800 174.671000 -39.081100 -0.002282 -0.040193 -0.203493 0.360818 29.818500 -40.985400 0.000008 0.000006 3.386430 12.913800 -69.616800 -11.754300 -0.000006 -0.000006 -0.028648 -0.035982 -16.563800
0.000000 0.000000 0.000000 0.000000 0.000000 -0.000000 -1.648930 91.177700 -2.014420 91.925100 -6.097210 5.414890 15.735700 0.000005 -0.000001 94.604100 84.396700 -88.815500 8.984550 -0.406207 -0.000000 3.396660 0.679013 11.544600 16.377300 -0.000001 -0.000001 6.913890 -2.992350 -2.537670 6.456720 -0.000001 -0.000000 2.311450 -4.198260 4.619440 12.994200 -0.242716 4.980390 -85.948600 -8.262020 -63.762600 5.348090 -0.000007 -0.000001 -11.108800 -60.204900 -41.452900 24.328600 0.000019 0.000005 -2.242690 -3.528560 -32.454600 22.291600 -0.000001 0.000005 19.275100 5.047940 6.284240 12.994500 -0.242716 -4.980390 87.284700 8.892000 -72.943000 -5.348130 -0.000001 -0.000004 -54.713600 1.436980 0.816648 -24.328900 0.000322 -0.000009 -6.637010 -16.735800 -21.999500 -22.291500 -0.000108 -0.000004 21.127700 5.487730 -6.046870 -2.192480 -6.469440 -0.000000 -175.143000 -21.553900 -2.764000 39.081100 -0.000007 -0.000012 -0.112270 0.220555 26.977700 40.985400 -0.000006 -0.000013 0.335281 12.727500 -67.871900 11.754300 -0.000000 0.000003 -0.000064 -0.000699 -16.604600 -2.192510 6.469440 -0.000001 174.625000 16.638500 174.567000 -39.081100 -0.002282 -0.040193 -0.208012 0.361532 30.306300 -40.985400 0.000008 0.000006 3.582580 12.700400 -69.999500 -11.754300 -0.000006 -0.000006 -0.010201 -0.013021 -16.579000
0.000000 0.000000 0.000000 0.000000 0.000000 -0.000000 -1.988500 91.101300 -1.955760 92.126700 -6.277960 5.540820 15.735700 0.000005 -0.000001 94.705400 84.262000 -88.690100 8.984550 -0.406207 -0.000000 3.661780 0.726109 11.994100 16.377300 -0.000001 -0.000001 6.829060 -3.131510 -1.496650 6.456720 -0.000001 -0.000000 2.109070 -4.098490 3.902370 12.994200 -0.242716 4.980390 -86.689100 -7.372790 -65.733900 5.348090 -0.000007 -0.000001 -7.789820 -46.826900 -28.112600 24.328600 0.000019 0.000005 1.082290 2.055430 -27.815100 22.291600 -0.000001 0.000005 21.285300 5.041060 6.433780 12.994500 -0.242716 -4.980390 87.118100 9.277380 -72.658500 -5.348130 -0.000001 -0.000004 -54.176200 1.334920 0.394961 -24.328900 0.000322 -0.000009 -6.800080 -17.127000 -22.040800 -22.291500 -0.000108 -0.000004 21.626000 5.494850 -6.327260 -2.192480 -6.469440 -0.000000 -175.038000 -21.613000 -2.638340 39.081100 -0.000007 -0.000012 -0.125964 0.245639 27.148900 40.985400 -0.000006 -0.000013 0.089711 12.648300 -67.951700 11.754300 -0.000000 0.000003 -0.000075 -0.000807 -16.608700 -2.192510 6.469440 -0.000001 174.700000 15.983900 174.443000 -39.081100 -0.002282 -0.040193 -0.220540 0.375320 30.812100 -40.985400 0.000008 0.000006 3.736240 12.241800 -70.350100 -11.754300 -0.000006 -0.000006 -0.000029 -0.000352 -16.587700
